<?xml version="1.0" encoding="utf-8"?>
<!-- Generator: Adobe Illustrator 24.2.3, SVG Export Plug-In . SVG Version: 6.00 Build 0)  -->
<svg version="1.1" id="Layer_1" xmlns="http://www.w3.org/2000/svg" xmlns:xlink="http://www.w3.org/1999/xlink" x="0px" y="0px"
	 viewBox="0 0 337.5 337.5" style="enable-background:new 0 0 337.5 337.5;" xml:space="preserve">
<style type="text/css">
	.st0{fill:#029833;}
	.st1{fill:#003299;}
</style>
<g id="Art_3">
	<path class="st0" d="M241.7,59.9c-39.2,63.1-143.7,8-141.2,89c29.5,0.1,60.7-14.3,92.5-33.6C150,169.5,26.5,150.2,7.2,187.2
		c-2.3,4.3-2.5,9.4-0.6,13.9c2.1,4.4,5.8,6.6,11.2,8.8c35.1,156.8,252.6,163.6,290.5,1.6c26.8-11.7,13.8-37.7-21.7-44l-11,14.4
		c153.7,50.2-411.8,37.6-207.8-0.2C134.2,172.7,243.9,166.4,241.7,59.9z"/>
	<path class="st1" d="M293.4,73.9c-21.4,0-38.8,17.4-38.8,38.8c0,0,0,0,0,0c0,1.1,0,2.2,0.1,3.3c-0.4,0.6-0.8,1.3-1.3,2l-113,91.6
		c43.4,1.5,76.2,0.9,109-4.9l40.6-52.5l1-0.7c0.8,0,1.6,0.1,2.4,0.1c21.4,0,38.8-17.4,38.8-38.8C332.3,91.3,314.9,73.9,293.4,73.9
		L293.4,73.9z"/>
	<circle class="st1" cx="51.6" cy="112.8" r="24.2"/>
	<circle class="st1" cx="152" cy="65.3" r="15.7"/>
	<circle class="st0" cx="202.7" cy="18.3" r="11.1"/>
	<circle class="st0" cx="101.3" cy="49.7" r="10.5"/>
	<circle class="st0" cx="272.9" cy="49.7" r="9.5"/>
</g>
</svg>
