<svg id="Layer_1" height="512" viewBox="0 0 128 128" width="512" xmlns="http://www.w3.org/2000/svg" xmlns:xlink="http://www.w3.org/1999/xlink" data-name="Layer 1"><linearGradient id="linear-gradient" gradientUnits="userSpaceOnUse" x1="97.877" x2="20.26" y1="102.098" y2="24.481"><stop offset="0" stop-color="#ff4945"/><stop offset="1" stop-color="#49a0ff"/></linearGradient><path d="m59.25 92.167v-3.834a1.75 1.75 0 0 1 3.5 0v3.834a1.75 1.75 0 0 1 -3.5 0zm45.8-7.532c-2.87 9.713-17.387 17.216-36.3 18.853v5.125a13.76 13.76 0 0 1 9 12.887 1.75 1.75 0 0 1 -1.75 1.75h-24a1.75 1.75 0 0 1 -1.75-1.75 13.76 13.76 0 0 1 9-12.887v-9.863a1.75 1.75 0 0 1 3.5 0v9.063c.412-.037.828-.063 1.25-.063s.838.026 1.25.063v-32.691c-.415.016-.831.032-1.25.032s-.835-.016-1.25-.032v6.045a1.75 1.75 0 0 1 -3.5 0v-6.367a32.369 32.369 0 0 1 -23.65-16.577c-9.534-6.01-13.929-14.41-13.049-24.979 1.081-12.841 7.875-22.11 19.129-26.1a45.57 45.57 0 0 1 15.17-2.394c11.925 0 21.663 6.87 24.824 17.506a11.484 11.484 0 0 1 -4.2 13.7 1.754 1.754 0 0 1 -1.814.075c-6.944-3.827-6.152-10.374-5.728-13.891a14.854 14.854 0 0 0 .162-2c-2.878-3.7-7.8-5.893-13.24-5.893a36.022 36.022 0 0 0 -11.977 1.841 18.7 18.7 0 0 0 -8.21 5.482 1.75 1.75 0 1 1 -2.676-2.256 22.153 22.153 0 0 1 9.709-6.523 39.511 39.511 0 0 1 13.15-2.041c6.678 0 12.756 2.834 16.259 7.581a1.751 1.751 0 0 1 .207.365 7.9 7.9 0 0 1 .087 3.865c-.386 3.193-.859 7.111 2.978 9.807a8.078 8.078 0 0 0 1.983-8.976c-.012-.032-.022-.064-.032-.1-2.696-9.137-11.132-15.042-21.482-15.042a42.107 42.107 0 0 0 -14 2.19c-9.879 3.5-15.849 11.708-16.808 23.1-.619 7.444 1.673 13.489 6.958 18.341a32.022 32.022 0 0 1 -.987-4.649c-2.757-3.7-3.9-8.117-3.45-13.488a32.169 32.169 0 0 1 .972-5.686 1.75 1.75 0 0 1 3.379.914 28.646 28.646 0 0 0 -.862 5.063 17.775 17.775 0 0 0 .724 7.218 1.745 1.745 0 0 1 .684-.139h42.957a1.75 1.75 0 0 1 0 3.5h-41.152a28.789 28.789 0 0 0 57.471 0h-8.11a1.75 1.75 0 0 1 0-3.5h9.913a1.75 1.75 0 0 1 1.75 1.75 32.145 32.145 0 0 1 -8.012 21.253c1.235.377 2.372.765 3.407 1.173 15.868 6.19 14.242 16.372 13.365 19.345zm-41.05 26.615a10.267 10.267 0 0 0 -10.1 8.5h20.2a10.267 10.267 0 0 0 -10.1-8.5zm4.75-11.589c8.4-2.476 25.584-9.173 27.108-17.525.568-3.1-2.011-5.8-7.665-8.006a66.378 66.378 0 0 0 -9.293-2.63 32.026 32.026 0 0 1 -10.15 3.3zm21.65-31.11a47.621 47.621 0 0 0 -4.933-1.6q-1.153 1.029-2.4 1.946a54.525 54.525 0 0 1 6.4 1.971c9.266 3.618 10.462 8.466 9.835 11.9-.958 5.242-6.06 9.584-11.885 12.919 7.563-3.041 12.881-7.322 14.274-12.041.664-2.251 1.809-9.989-11.291-15.095z" fill="url(#linear-gradient)"/></svg>