<?xml version="1.0" encoding="utf-8"?>
<!-- Generator: Adobe Illustrator 24.2.3, SVG Export Plug-In . SVG Version: 6.00 Build 0)  -->
<svg version="1.1" id="Layer_1" xmlns="http://www.w3.org/2000/svg" xmlns:xlink="http://www.w3.org/1999/xlink" x="0px" y="0px"
	 viewBox="0 0 1303.3 414.6" style="enable-background:new 0 0 1303.3 414.6;" xml:space="preserve">
<style type="text/css">
	.st0{fill:#029833;}
	.st1{fill:#003299;}
	.st2{fill:#595959;}
</style>
<g id="Art_2">
	<path class="st0" d="M298.2,98.5c-39.2,63.1-143.7,8-141.2,89c29.5,0.1,60.7-14.3,92.5-33.6c-43,54.2-166.5,34.8-185.8,71.9
		c-2.3,4.3-2.5,9.4-0.5,13.9c2.1,4.4,5.8,6.6,11.2,8.8C109.5,405.3,327,412.1,364.9,250c26.8-11.6,13.8-37.7-21.7-43.9l-11,14.4
		c153.7,50.2-411.8,37.6-207.8-0.2C190.7,211.3,300.4,205,298.2,98.5z"/>
	<path class="st1" d="M350,112.4c-21.4,0-38.8,17.4-38.8,38.8l0,0c0,1.1,0,2.2,0.1,3.3c-0.4,0.6-0.8,1.3-1.3,1.9L197,248
		c43.4,1.5,76.2,0.9,109-4.9l40.6-52.4l1-0.7c0.8,0,1.6,0.1,2.4,0.1c21.4-0.3,38.6-18,38.2-39.5C387.8,129.7,370.9,112.8,350,112.4
		L350,112.4z"/>
	<circle class="st1" cx="108.1" cy="151.4" r="24.2"/>
	<circle class="st1" cx="208.5" cy="103.9" r="15.7"/>
	
		<ellipse transform="matrix(0.1602 -0.9871 0.9871 0.1602 161.5296 303.6763)" class="st0" cx="259.2" cy="56.9" rx="11.1" ry="11.1"/>
	<circle class="st0" cx="157.9" cy="88.2" r="10.5"/>
	<circle class="st0" cx="329.4" cy="88.2" r="9.5"/>
	<g>
		<path class="st2" d="M490.2,168.3c12.1,0,20.4,2.3,26.1,6.1c7.2,4.9,11,12,11,21.5c0,22-19.2,31.2-34.6,31.2
			c-0.9,0-1.9-0.2-2.8-0.3l-9.2-2v24.4c0,13.6,1.6,14.7,13.5,16.4v2.4h-44.9v-2.5c11.4-1.9,12.3-2.8,12.3-16.4v-61.7
			c0-13.8-1.4-14.7-12.3-16.6v-2.4L490.2,168.3L490.2,168.3z M480.8,221.6c1.9,0.6,4.8,0.8,8.2,0.8c4.6,0,18-2.3,18-26.2
			c0-18.3-7.9-24.3-18.5-24.3c-2.8,0-5.1,0.5-6,1.1c-1.4,0.9-1.6,2.4-1.6,4.9L480.8,221.6z"/>
		<path class="st2" d="M567.9,268.2v-2.4c11.5-2,12.3-3.1,12.3-17.3v-60.4c0-14.3-1.1-15.5-12.3-17.2v-2.4h43.8v2.4
			c-11.2,2-12.4,2.8-12.4,17.2v60.3c0,14.7,0.9,15.5,12.4,17.5v2.4L567.9,268.2z"/>
		<path class="st2" d="M721.7,191.4c-1-4.2-2.6-8.2-4.8-11.9c-2.8-4.8-6.8-6.6-16.8-6.6h-10.8c-4.6,0-5.7,0.8-5.7,5.4v36.5h16.9
			c11.2,0,12.1-2.4,14.7-13.3h2.3v31.1h-2.5c-2.9-10.5-3.3-13.3-14.6-13.3h-16.9v27.1c0,15.9,0.9,16.9,14,19.2v2.4h-45.3v-2.4
			c11.2-2,12.3-3.2,12.3-19.2v-57.6c0-15.2-1.1-15.9-12.3-18.1v-2.4h48.2c15,0,20.4-0.2,22.2-0.3c0.2,2.8,0.6,14.9,1.4,23.1
			L721.7,191.4z"/>
		<path class="st2" d="M805.2,168.3c12.1,0,20.4,2.3,26.1,6.1c7.2,4.9,11,12,11,21.5c0,22-19.2,31.2-34.6,31.2
			c-0.9,0-1.9-0.2-2.8-0.3l-9.2-2v24.4c0,13.6,1.6,14.7,13.5,16.4v2.4h-44.9v-2.5c11.4-1.9,12.3-2.8,12.3-16.4v-61.7
			c0-13.8-1.4-14.7-12.3-16.6v-2.4L805.2,168.3L805.2,168.3z M795.8,221.6c1.9,0.6,4.8,0.8,8.2,0.8c4.6,0,18-2.3,18-26.2
			c0-18.3-7.9-24.3-18.5-24.3c-2.8,0-5.1,0.5-6,1.1c-1.4,0.9-1.6,2.4-1.6,4.9V221.6z"/>
		<path class="st2" d="M977.7,269.3h-6.9c-18.4-0.8-23.4-4.3-28.6-12.4c-5.5-8.5-10.5-17.3-15-26.4c-3.3-6.5-5.7-8.3-10.9-8.3H914
			v27.1c0,12.9,0.9,14.1,12.3,16.6v2.4h-43.3v-2.5c11.4-2.4,12.3-3.3,12.3-16.6v-61.9c0-12.9-0.9-14.6-12.3-16.4v-2.4h41.3
			c12.6,0,20.3,1.4,26.6,5.8c5.8,4,9.2,10.3,9.2,18.1c0,15.5-11.9,22.4-19.5,25.7c2.3,4.2,10.5,18.3,14.7,25.2
			c5.8,9.4,7.9,12.4,11.2,16.4c3.5,4.2,5.7,5.6,11.7,7.5L977.7,269.3z M917.1,218.6c7.4,0,12.8-0.6,16.4-4.2c4.3-4,6.1-9.4,6.1-18.3
			c0-17.8-8.9-24.3-17.7-24.3c-3.2,0-5.4,0.3-6.3,1.1c-1.1,0.8-1.7,1.9-1.7,4.9v40.7H917.1z"/>
		<path class="st2" d="M1060.7,166.3c27.2,0,49.9,21.3,49.9,51.2c0,32.1-22.6,53.1-50.3,53.1c-29.8,0-51-23-51-51.5
			C1009.3,192.8,1028.3,166.3,1060.7,166.3z M1057.6,170.1c-15,0-26.4,15-26.4,45.4c0,28.7,11.7,51.2,31.6,51.2
			c15.4,0,25.8-15.5,25.8-45.3C1088.6,189.3,1076.6,170.1,1057.6,170.1L1057.6,170.1z"/>
	</g>
</g>
</svg>
