<svg id="Logo_1" data-name="Logo 1" xmlns="http://www.w3.org/2000/svg" viewBox="0 0 764.46 764.46"><defs><style>.cls-1{fill:#029833;}.cls-2{fill:#003299;}.cls-3{font-size:142.24px;fill:#fff;font-family:Lato-Light, Lato;font-weight:300;}.cls-4,.cls-5,.cls-6{font-family:Lato-Regular, Lato;font-weight:400;}.cls-5,.cls-6{font-size:102.41px;}.cls-5{letter-spacing:-0.02em;}.cls-6{letter-spacing:0em;}</style></defs><path class="cls-1" d="M455.18,195.66c-39.17,63.14-143.73,8-141.2,89,29.54.15,60.74-14.27,92.54-33.6-43.09,54.22-166.6,34.86-185.89,71.91a15.62,15.62,0,0,0-.55,13.86c2.09,4.4,5.81,6.64,11.19,8.83,35.08,156.79,252.59,163.6,290.53,1.55,26.76-11.65,13.83-37.72-21.71-43.94l-11,14.43c153.68,50.23-411.8,37.59-207.84-.17C347.66,308.49,457.39,302.2,455.18,195.66Z"/><path class="cls-2" d="M506.91,209.62a38.83,38.83,0,0,0-38.83,38.84c0,1.1.05,2.19.14,3.26-.42.65-.84,1.28-1.26,1.95l-113,91.58c43.43,1.49,76.22.89,109-4.93l40.57-52.45,1-.66c.79.05,1.58.08,2.39.08a38.84,38.84,0,0,0,0-77.67Z"/><circle class="cls-2" cx="265.05" cy="248.56" r="24.22"/><circle class="cls-2" cx="365.47" cy="201.07" r="15.66"/><circle class="cls-1" cx="416.18" cy="154.08" r="11.08"/><circle class="cls-1" cx="314.81" cy="185.4" r="10.5"/><circle class="cls-1" cx="486.33" cy="185.4" r="9.5"/><text class="cls-3" transform="translate(163.5 626.54)">PIF<tspan class="cls-4" x="208.3" y="0">P</tspan><tspan class="cls-5" x="295.21" y="0">R</tspan><tspan class="cls-6" x="358.81" y="0">O</tspan></text></svg>