<svg id="Art_1" xmlns="http://www.w3.org/2000/svg" viewBox="0 0 764.46 764.46"><defs><style>.cls-1{fill:#029833;}.cls-2{fill:#003299;}.cls-3{fill:#fff;}</style></defs><path class="cls-1" d="M455.18,195.66c-39.17,63.14-143.73,8-141.2,89,29.54.15,60.74-14.27,92.54-33.6-43.09,54.22-166.6,34.86-185.89,71.91a15.62,15.62,0,0,0-.55,13.86c2.09,4.4,5.81,6.64,11.19,8.83,35.08,156.79,252.59,163.6,290.53,1.55,26.76-11.65,13.83-37.72-21.71-43.94l-11,14.43c153.68,50.23-411.8,37.59-207.84-.17C347.66,308.49,457.39,302.2,455.18,195.66Z"/><path class="cls-2" d="M506.91,209.62a38.83,38.83,0,0,0-38.83,38.84c0,1.1.05,2.19.14,3.26-.42.65-.84,1.28-1.26,1.95l-113,91.58c43.43,1.49,76.22.89,109-4.93l40.57-52.45,1-.66c.79.05,1.58.08,2.39.08a38.84,38.84,0,0,0,0-77.67Z"/><circle class="cls-2" cx="265.05" cy="248.56" r="24.22"/><circle class="cls-2" cx="365.47" cy="201.07" r="15.66"/><circle class="cls-1" cx="416.18" cy="154.08" r="11.08"/><circle class="cls-1" cx="314.81" cy="185.4" r="10.5"/><circle class="cls-1" cx="486.33" cy="185.4" r="9.5"/><path class="cls-3" d="M97.83,534.08c11.24,0,19.78,2,25.61,5.83,7.11,4.7,11.09,11.52,11.09,21.34,0,20.62-17.49,29.3-32.71,29.44a36.35,36.35,0,0,1-4.27-.28l-8.25-2.14v19.35c0,12,1,12.52,13.37,13.65v5.27H57.44v-5.27c10.67-1.28,12.09-1.7,12.09-13.65V553.28c0-11.95-1.42-13.23-12.09-13.94v-5.26ZM89.3,582.3a18.29,18.29,0,0,0,7.54,1.42c6.54,0,17.21-3.84,17.21-22.61,0-15.94-8.68-21.2-17.92-21.2-3,0-4.7.71-5.55,1.42s-1.28,2.28-1.28,4.41Z"/><path class="cls-3" d="M174.35,626.54v-5.27c10.81-1,12.09-1.85,12.09-13.79v-54.2c0-11.95-1.42-13.08-12.09-13.94v-5.26h44v5.26c-10.67,1-12.09,2-12.09,13.94v54.2c0,11.8,1.28,12.66,12.09,13.79v5.27Z"/><path class="cls-3" d="M324.7,557.69c-1.57-5.4-3.84-10.67-6.26-13.37-3-3.13-4.84-3.7-11.66-3.7H296.11c-4.84,0-5.41.29-5.41,5.12v31h15.22c8.39,0,9.53-2.13,11.67-12.09h5.26v31.58h-5.41c-1.56-9.67-3.69-12.09-11.52-12.09H290.7v22.19c0,13.08.86,14.08,13.66,14.93v5.27H258.84v-5.27c10.81-1,12.09-1.85,12.09-14.93V554c0-12.66-1.28-13.79-12.09-14.65v-5.26h48.22c12.23,0,19.35-.14,21.62-.29.14,2.42.85,14.66,1.57,23.05Z"/><path class="cls-3" d="M409.33,534.08c11.23,0,19.77,2,25.6,5.83,7.11,4.7,11.1,11.52,11.1,21.34,0,20.62-17.5,29.3-32.72,29.44a36.35,36.35,0,0,1-4.27-.28l-8.25-2.14v19.35c0,12,1,12.52,13.37,13.65v5.27H368.93v-5.27C379.6,620,381,619.57,381,607.62V553.28c0-11.95-1.42-13.23-12.09-13.94v-5.26Zm-8.54,48.22a18.29,18.29,0,0,0,7.54,1.42c6.54,0,17.21-3.84,17.21-22.61,0-15.94-8.67-21.2-17.92-21.2-3,0-4.69.71-5.55,1.42s-1.28,2.28-1.28,4.41Z"/><path class="cls-3" d="M575.32,627.39c-.86,0-2.56,0-4.27-.14-18.07-.86-23.33-4.7-27.6-10.67-5.69-7.82-9.81-16.5-14.65-25-2.13-3.85-4.12-4.7-8.67-4.7l-2.85-.14v20.77c0,11.52,1.42,12.51,12.09,13.79v5.27H485.85v-5.27c10.81-1.13,12.09-2.27,12.09-13.79V553c0-11.24-1.43-12.8-12.09-13.66v-5.26H527.1c12.66,0,19.91,1.42,25.74,5.4s9.53,10.1,9.53,18.92c0,12.66-8.39,19.35-17.78,23.05,2.13,4.26,7.68,13.51,11.95,20a115.13,115.13,0,0,0,10.81,14.8c3.27,3.69,4.84,4.83,9,6.25Zm-54.2-46.51c6.12,0,10.81-1,13.94-3.7,4.7-4,6.69-9.39,6.69-16.64,0-15.08-8.68-20.49-16.65-20.49-3.84,0-5.69.57-6.54,1.43s-1.28,2.56-1.28,5.4v34Z"/><path class="cls-3" d="M659,532.09c26.31,0,47.79,19.2,47.79,47.22,0,30.3-21.62,49.36-48.5,49.36-28.45,0-49.08-20.77-49.08-48.22C609.16,556.13,626.52,532.09,659,532.09Zm-2.14,6.26c-14.51,0-25.17,14.22-25.17,39.4,0,24,9.53,44.66,28.73,44.66,13.51,0,24-13.08,24-39.11C684.41,555.13,673.31,538.35,656.81,538.35Z"/></svg>