<svg xmlns="http://www.w3.org/2000/svg" viewBox="0 0 1235.15 414.65"><defs><style>.cls-1{fill:#029833;}.cls-2{fill:#003299;}.cls-3{font-size:182.48px;font-family:Lato-Light, Lato;font-weight:300;}.cls-4,.cls-5,.cls-6{font-family:Lato-Regular, Lato;font-weight:400;}.cls-5,.cls-6{font-size:131.38px;}.cls-5{letter-spacing:-0.02em;}</style></defs><g id="Layer_2" data-name="Layer 2"><path class="cls-1" d="M368.46,98.47c-39.16,63.14-143.72,8-141.19,89,29.53.14,60.74-14.28,92.53-33.6-43.09,54.21-166.59,34.86-185.88,71.9a15.65,15.65,0,0,0-.55,13.87c2.08,4.4,5.81,6.64,11.18,8.83C179.63,405.27,397.14,412.07,435.08,250c26.76-11.65,13.83-37.72-21.71-43.94l-11,14.42c153.69,50.24-411.79,37.6-207.84-.16C261,211.3,370.68,205,368.46,98.47Z"/><path class="cls-2" d="M420.19,112.43a38.84,38.84,0,0,0-38.83,38.83c0,1.11.06,2.19.15,3.27-.42.64-.84,1.28-1.26,1.95l-113,91.58c43.43,1.48,76.22.89,109-4.93l40.57-52.45,1-.66c.79,0,1.59.08,2.39.08a38.84,38.84,0,1,0,0-77.67Z"/><circle class="cls-2" cx="178.34" cy="151.37" r="24.22"/><circle class="cls-2" cx="278.76" cy="103.87" r="15.66"/><circle class="cls-1" cx="329.46" cy="56.89" r="11.08"/><circle class="cls-1" cx="228.1" cy="88.21" r="10.5"/><circle class="cls-1" cx="399.62" cy="88.21" r="9.5"/><text class="cls-3" transform="translate(538 285.03)">PIF<tspan class="cls-4" x="267.23" y="0">P</tspan><tspan class="cls-5" x="378.72" y="0">R</tspan><tspan class="cls-6" x="460.31" y="0">O</tspan></text></g></svg>